<svg width="20" height="20" viewBox="0 0 20 20" fill="none" xmlns="http://www.w3.org/2000/svg">
<path d="M16.4958 15.5322C9.20943 18.9999 4.68743 16.0986 1.79275 14.3364C1.61363 14.2254 1.30919 14.3624 1.57334 14.6658C2.5377 15.8351 5.69811 18.6535 9.82337 18.6535C13.9515 18.6535 16.4073 16.401 16.7145 16.0081C17.0197 15.6184 16.8041 15.4035 16.4957 15.5322H16.4958ZM18.5422 14.4021C18.3465 14.1473 17.3524 14.0998 16.7267 14.1767C16.1001 14.2513 15.1596 14.6343 15.2413 14.8642C15.2833 14.9504 15.3689 14.9117 15.7994 14.873C16.231 14.83 17.4402 14.6773 17.6922 15.0067C17.9453 15.3384 17.3065 16.9183 17.1898 17.1731C17.0771 17.4279 17.2329 17.4936 17.4446 17.3239C17.6535 17.1542 18.0315 16.7149 18.2852 16.0932C18.5372 15.4681 18.6909 14.5961 18.5422 14.4021Z" fill="black"/>
<path fill-rule="evenodd" clip-rule="evenodd" d="M11.5965 8.45649C11.5965 9.36636 11.6195 10.1251 11.1596 10.9332C10.7884 11.5902 10.2004 11.9942 9.54351 11.9942C8.64672 11.9942 8.12445 11.3109 8.12445 10.3025C8.12445 8.31192 9.90805 7.95063 11.5965 7.95063V8.45649ZM13.9517 14.149C13.7973 14.287 13.5739 14.2969 13.3998 14.2049C12.6246 13.5611 12.4867 13.2622 12.0597 12.6479C10.7786 13.9552 9.87198 14.3461 8.20989 14.3461C6.24558 14.3461 4.71485 13.134 4.71485 10.7065C4.71485 8.81127 5.74305 7.52031 7.20468 6.88968C8.47266 6.3312 10.2432 6.23267 11.5965 6.07834V5.77611C11.5965 5.22095 11.6392 4.56401 11.314 4.08446C11.0282 3.65414 10.4829 3.47675 10.0033 3.47675C9.11319 3.47675 8.31825 3.93331 8.12445 4.87932C8.08499 5.0896 7.93065 5.29656 7.72044 5.30639L5.4539 5.06336C5.26343 5.02057 5.05322 4.86624 5.10577 4.57384C5.62804 1.82782 8.10797 1 10.3285 1C11.465 1 12.9497 1.30223 13.8465 2.16287C14.9831 3.22382 14.8746 4.63955 14.8746 6.18012V9.81967C14.8746 10.9135 15.3279 11.3931 15.7549 11.9844C15.906 12.1946 15.9389 12.4476 15.7484 12.6052C15.2721 13.0026 14.4246 13.7417 13.9582 14.1556L13.9516 14.149" fill="black"/>
</svg>
