<svg width="20" height="20" viewBox="0 0 20 20" fill="none" xmlns="http://www.w3.org/2000/svg">
<path d="M18.9996 10C18.9996 5.0297 14.9703 1.00037 9.99996 1.00037C5.02962 1.00037 1.00028 5.0297 1.00028 10C1.00028 14.2205 3.90609 17.7621 7.826 18.7348V12.7503H5.97026V10H7.826V8.81497C7.826 5.75184 9.21231 4.33205 12.2196 4.33205C12.7899 4.33205 13.7737 4.444 14.1762 4.5556V7.04851C13.9638 7.02619 13.5948 7.01503 13.1365 7.01503C11.6609 7.01503 11.0907 7.57409 11.0907 9.02736V10H14.0304L13.5253 12.7503H11.0907V18.9338C15.547 18.3957 18.9996 14.6014 18.9996 10Z" fill="black"/>
</svg>
