<svg width="20" height="20" viewBox="0 0 20 20" fill="none" xmlns="http://www.w3.org/2000/svg">
<path fill-rule="evenodd" clip-rule="evenodd" d="M5.46971 7.18108C4.58492 6.58126 4 5.54278 4 4.36213C4 2.50528 5.44684 1 7.23161 1H12.7684C14.5532 1 16 2.50528 16 4.36213C16 5.54278 15.4151 6.58126 14.5303 7.18108C15.4151 7.7809 16 8.81941 16 10C16 11.8569 14.5532 13.3622 12.7684 13.3622H12.7095C11.8658 13.3622 11.0976 13.0258 10.5221 12.4749V15.6072C10.5221 17.4848 9.04362 19 7.24625 19C5.46515 19 4 17.4985 4 15.6379C4 14.4573 4.5849 13.4188 5.46965 12.819C4.5849 12.2191 4 11.1806 4 10C4 8.81941 4.58492 7.7809 5.46971 7.18108ZM10.5221 10C10.5221 11.2569 11.5015 12.2757 12.7095 12.2757H12.7684C13.9765 12.2757 14.9558 11.2569 14.9558 10C14.9558 8.74318 13.9765 7.72432 12.7684 7.72432H12.7095C11.5015 7.72432 10.5221 8.74318 10.5221 10ZM9.47788 7.72432H7.23161C6.02355 7.72432 5.04424 8.74318 5.04424 10C5.04424 11.2543 6.0196 12.2716 7.22425 12.2757H7.22768H9.47788V7.72432ZM7.23161 13.3622C7.22915 13.3622 7.2267 13.3622 7.22425 13.3622C6.0196 13.3663 5.04424 14.3836 5.04424 15.6379C5.04424 16.8909 6.03454 17.9136 7.24625 17.9136C8.47424 17.9136 9.47788 16.8772 9.47788 15.6072V13.3622H7.23161ZM9.47788 6.63784H7.23161C6.02355 6.63784 5.04424 5.61898 5.04424 4.36213C5.04424 3.10528 6.02355 2.08642 7.23161 2.08642H9.47788V6.63784ZM12.7684 6.63784H10.5221V2.08642H12.7684C13.9765 2.08642 14.9558 3.10528 14.9558 4.36213C14.9558 5.61898 13.9765 6.63784 12.7684 6.63784Z" fill="black"/>
</svg>
