<svg width="20" height="20" viewBox="0 0 20 20" fill="none" xmlns="http://www.w3.org/2000/svg">
<path d="M18.7011 8.19419L18.6758 8.1295L16.2257 1.73337C16.1759 1.60801 16.0876 1.50167 15.9736 1.4296C15.8595 1.35875 15.7264 1.32463 15.5924 1.33184C15.4583 1.33905 15.3296 1.38724 15.2238 1.46991C15.1191 1.55495 15.0432 1.67019 15.0063 1.79994L13.352 6.86284H6.65334L4.99905 1.79994C4.96317 1.66948 4.88708 1.55367 4.7816 1.46897C4.67576 1.3863 4.54711 1.33811 4.41303 1.3309C4.27894 1.32369 4.14587 1.35781 4.03178 1.42866C3.91802 1.50102 3.82983 1.60727 3.77965 1.73243L1.32493 8.12575L1.30056 8.19044C0.947868 9.11227 0.904333 10.1238 1.17652 11.0725C1.44871 12.0213 2.02187 12.8558 2.80957 13.4502L2.81801 13.4568L2.8405 13.4727L6.57273 16.2686L8.41916 17.6665L9.54389 18.5159C9.67545 18.6159 9.8361 18.67 10.0013 18.67C10.1665 18.67 10.3271 18.6159 10.4587 18.5159L11.5834 17.6665L13.4298 16.2686L17.1846 13.4559L17.1939 13.4484C17.9799 12.8538 18.5517 12.0202 18.8235 11.0727C19.0952 10.1252 19.0523 9.11514 18.7011 8.19419Z" fill="black"/>
</svg>
