<svg width="20" height="20" viewBox="0 0 20 20" fill="none" xmlns="http://www.w3.org/2000/svg">
<path d="M18.82 10.2046C18.82 9.56638 18.7627 8.95274 18.6564 8.36365H10.18V11.8491H15.0236C14.8109 12.97 14.1727 13.9191 13.2155 14.5573V16.8237H16.1364C17.8382 15.2528 18.82 12.9455 18.82 10.2046Z" fill="black"/>
<path d="M10.18 19C12.61 19 14.6473 18.1982 16.1364 16.8236L13.2155 14.5572C12.4136 15.0972 11.3909 15.4245 10.18 15.4245C7.83999 15.4245 5.8518 13.8454 5.13998 11.7181H2.14543V14.0418C3.62634 16.9791 6.66181 19 10.18 19Z" fill="black"/>
<path d="M5.13999 11.7101C4.95999 11.1701 4.85362 10.5974 4.85362 10.0001C4.85362 9.4028 4.95999 8.83007 5.13999 8.29007V5.96643H2.14543C1.5318 7.17734 1.17998 8.54371 1.17998 10.0001C1.17998 11.4564 1.5318 12.8228 2.14543 14.0337L4.47726 12.2174L5.13999 11.7101Z" fill="black"/>
<path d="M10.18 4.58364C11.5055 4.58364 12.6836 5.04183 13.6245 5.92547L16.2018 3.34819C14.6391 1.89182 12.61 1 10.18 1C6.66181 1 3.62634 3.02091 2.14543 5.96637L5.13998 8.29002C5.8518 6.16274 7.83999 4.58364 10.18 4.58364Z" fill="black"/>
</svg>
