<svg width="20" height="20" viewBox="0 0 20 20" fill="none" xmlns="http://www.w3.org/2000/svg">
<path fill-rule="evenodd" clip-rule="evenodd" d="M13.9306 13.971C12.5861 13.971 11.4962 12.8924 11.4962 11.5621C11.4962 10.2316 12.5861 9.15305 13.9306 9.15305C15.2751 9.15305 16.365 10.2316 16.365 11.5621C16.365 12.8924 15.2751 13.971 13.9306 13.971ZM14.6593 6.92426V4.78123C15.2246 4.51702 15.6205 3.95115 15.6205 3.29444V3.24497C15.6205 2.33862 14.8712 1.59707 13.9553 1.59707H13.9056C12.9897 1.59707 12.2404 2.33862 12.2404 3.24497V3.29444C12.2404 3.95115 12.6363 4.51725 13.2016 4.78146V6.92426C12.36 7.05301 11.591 7.39651 10.9569 7.90204L5.01107 3.32495C5.05031 3.17586 5.07787 3.02237 5.0781 2.86103C5.07904 1.8347 4.23955 1.00139 3.20199 1C2.16489 0.998845 1.3226 1.82985 1.32143 2.8564C1.32026 3.88296 2.15975 4.71627 3.19731 4.71743C3.5353 4.71789 3.8483 4.62289 4.12253 4.46847L9.97115 8.97113C9.47386 9.71406 9.18235 10.604 9.18235 11.5621C9.18235 12.5651 9.50259 13.493 10.0436 14.256L8.26508 16.0163C8.12446 15.9744 7.97871 15.9453 7.82408 15.9453C6.97174 15.9453 6.28058 16.629 6.28058 17.4725C6.28058 18.3162 6.97174 19 7.82408 19C8.67665 19 9.36758 18.3162 9.36758 17.4725C9.36758 17.32 9.33815 17.1755 9.29587 17.0363L11.0552 15.2953C11.8538 15.8984 12.8484 16.2608 13.9306 16.2608C16.553 16.2608 18.6786 14.1571 18.6786 11.5621C18.6786 9.21292 16.9347 7.27215 14.6593 6.92426Z" fill="black"/>
</svg>
