<svg width="20" height="20" viewBox="0 0 20 20" fill="none" xmlns="http://www.w3.org/2000/svg">
<path fill-rule="evenodd" clip-rule="evenodd" d="M17 1C18.1046 1 19 1.89543 19 3V17C19 18.1046 18.1046 19 17 19H3C1.89543 19 1 18.1046 1 17V3C1 1.89543 1.89543 1 3 1H17ZM3.75781 16.5H6.44238V7.83301H3.75781V16.5ZM13.3457 7.56836C11.5066 7.56836 10.7324 9.00098 10.7324 9.00098V7.83301H8.1582V16.5H10.7324V11.9502C10.7325 10.7314 11.2942 10.0059 12.3682 10.0059C13.355 10.0061 13.829 10.7033 13.8291 11.9502V16.5H16.5V11.0127C16.5 8.69111 15.1839 7.56839 13.3457 7.56836ZM5.08691 3.5C4.21029 3.50023 3.5 4.21659 3.5 5.09961C3.50019 5.98247 4.2104 6.69801 5.08691 6.69824C5.96362 6.69824 6.67364 5.98261 6.67383 5.09961C6.67383 4.21645 5.96374 3.5 5.08691 3.5Z" fill="black"/>
</svg>
