<svg width="20" height="20" viewBox="0 0 20 20" fill="none" xmlns="http://www.w3.org/2000/svg">
<path d="M12.2398 4.81635V8.33725L13.4702 9.11201C13.5026 9.12147 13.573 9.12215 13.6054 9.11201L18.901 5.54175C18.901 5.11922 18.5068 4.81635 18.2844 4.81635H12.2398Z" fill="black"/>
<path d="M12.2398 9.65082L13.3627 10.4222C13.5209 10.5385 13.7115 10.4222 13.7115 10.4222C13.5216 10.5385 18.9016 6.96484 18.9016 6.96484V13.4361C18.9016 14.1405 18.4507 14.4359 17.9437 14.4359H12.2391V9.65082H12.2398Z" fill="black"/>
<path d="M6.42569 8.02759C6.04304 8.02759 5.73814 8.20742 5.51301 8.5664C5.28789 8.92539 5.17498 9.40066 5.17498 9.99221C5.17498 10.5925 5.28789 11.0671 5.51301 11.416C5.73814 11.7655 6.03358 11.9392 6.39865 11.9392C6.77521 11.9392 7.07403 11.7696 7.29442 11.4302C7.51482 11.0908 7.62569 10.6196 7.62569 10.0172C7.62569 9.38916 7.51887 8.90038 7.30456 8.55086C7.09025 8.20201 6.79752 8.02759 6.42569 8.02759Z" fill="black"/>
<path d="M1.09837 3.02817V16.8028L11.5772 19V1L1.09837 3.02817ZM8.11042 12.2442C7.6676 12.8269 7.09025 13.119 6.37769 13.119C5.68338 13.119 5.1182 12.8364 4.68079 12.2719C4.24406 11.7067 4.02501 10.9712 4.02501 10.0639C4.02501 9.10592 4.24676 8.33115 4.69093 7.73961C5.1351 7.14806 5.72327 6.85194 6.45544 6.85194C7.14704 6.85194 7.70682 7.13454 8.13341 7.70107C8.56068 8.26761 8.77431 9.01397 8.77431 9.94085C8.77499 10.8934 8.55324 11.6614 8.11042 12.2442Z" fill="black"/>
</svg>
