<svg width="20" height="20" viewBox="0 0 20 20" fill="none" xmlns="http://www.w3.org/2000/svg">
<path d="M4.79475 12.379C4.79475 13.4251 3.94988 14.2707 2.90453 14.2707C1.85919 14.2707 1.01432 13.4251 1.01432 12.379C1.01432 11.3328 1.85919 10.4872 2.90453 10.4872H4.79475V12.379ZM5.73985 12.379C5.73985 11.3328 6.58472 10.4872 7.63007 10.4872C8.67541 10.4872 9.52028 11.3328 9.52028 12.379V17.1083C9.52028 18.1544 8.67541 19 7.63007 19C6.58472 19 5.73985 18.1544 5.73985 17.1083V12.379Z" fill="black"/>
<path d="M7.63007 4.78344C6.58473 4.78344 5.73986 3.9379 5.73986 2.89172C5.73986 1.84554 6.58473 1 7.63007 1C8.67542 1 9.52029 1.84554 9.52029 2.89172V4.78344H7.63007ZM7.63007 5.74363C8.67542 5.74363 9.52029 6.58917 9.52029 7.63535C9.52029 8.68153 8.67542 9.52707 7.63007 9.52707H2.89021C1.84487 9.52707 1 8.68153 1 7.63535C1 6.58917 1.84487 5.74363 2.89021 5.74363H7.63007Z" fill="black"/>
<path d="M15.2052 7.63535C15.2052 6.58917 16.0501 5.74363 17.0955 5.74363C18.1408 5.74363 18.9857 6.58917 18.9857 7.63535C18.9857 8.68153 18.1408 9.52707 17.0955 9.52707H15.2052V7.63535ZM14.2601 7.63535C14.2601 8.68153 13.4153 9.52707 12.3699 9.52707C11.3246 9.52707 10.4797 8.68153 10.4797 7.63535V2.89172C10.4797 1.84554 11.3246 1 12.3699 1C13.4153 1 14.2601 1.84554 14.2601 2.89172V7.63535Z" fill="black"/>
<path d="M12.3699 15.2165C13.4153 15.2165 14.2601 16.0621 14.2601 17.1083C14.2601 18.1544 13.4153 19 12.3699 19C11.3246 19 10.4797 18.1544 10.4797 17.1083V15.2165H12.3699ZM12.3699 14.2707C11.3246 14.2707 10.4797 13.4251 10.4797 12.379C10.4797 11.3328 11.3246 10.4872 12.3699 10.4872H17.1098C18.1551 10.4872 19 11.3328 19 12.379C19 13.4251 18.1551 14.2707 17.1098 14.2707H12.3699Z" fill="black"/>
</svg>
