<svg width="20" height="20" viewBox="0 0 20 20" fill="none" xmlns="http://www.w3.org/2000/svg">
<path d="M18.9356 14.1021C18.8106 13.7617 18.5723 13.5796 18.301 13.4288C18.2499 13.3989 18.203 13.375 18.163 13.3566C18.0821 13.3147 17.9993 13.2742 17.917 13.2315C17.0712 12.7831 16.4108 12.2174 15.9528 11.5469C15.8227 11.3581 15.7099 11.158 15.6157 10.949C15.5766 10.8373 15.5784 10.7738 15.6065 10.7159C15.6343 10.6712 15.6711 10.6328 15.7146 10.6032C15.8599 10.5071 16.0098 10.4096 16.1114 10.3438C16.2926 10.2265 16.4361 10.1336 16.5286 10.0679C16.8758 9.82504 17.1186 9.56704 17.2704 9.27869C17.3763 9.07946 17.438 8.85978 17.4514 8.63456C17.4648 8.40935 17.4296 8.18389 17.3481 7.97351C17.1181 7.36829 16.5465 6.99255 15.8539 6.99255C15.7078 6.99241 15.5621 7.00783 15.4193 7.03854C15.3811 7.04682 15.343 7.05556 15.3057 7.06522C15.3121 6.65131 15.3029 6.21441 15.2662 5.78441C15.1355 4.27274 14.6062 3.48034 14.0543 2.84845C13.7009 2.45248 13.2847 2.11747 12.8223 1.85692C11.9848 1.37863 11.0351 1.1358 9.99991 1.1358C8.96469 1.1358 8.01961 1.37863 7.18122 1.85692C6.7177 2.11755 6.30059 2.45323 5.94686 2.85029C5.39499 3.48218 4.86565 4.27596 4.73504 5.78625C4.69825 6.21625 4.68905 6.65545 4.69503 7.06706C4.65778 7.0574 4.62007 7.04866 4.5819 7.04038C4.43908 7.00967 4.29339 6.99425 4.1473 6.99439C3.45424 6.99439 2.88167 7.37013 2.65264 7.97535C2.57078 8.18581 2.53519 8.41144 2.54828 8.63689C2.56137 8.86234 2.62285 9.08233 2.72853 9.28191C2.88075 9.57026 3.12358 9.82826 3.4708 10.0711C3.56277 10.1355 3.70672 10.2284 3.88792 10.347C3.98588 10.4105 4.1289 10.5034 4.26917 10.5963C4.31825 10.628 4.35996 10.6699 4.3915 10.7191C4.42094 10.7793 4.42186 10.8442 4.37817 10.9637C4.28524 11.1683 4.17427 11.3643 4.04658 11.5492C3.59865 12.2045 2.95755 12.7601 2.13894 13.2048C1.70526 13.4347 1.25457 13.5884 1.06417 14.1057C0.920684 14.4962 1.0145 14.9404 1.3792 15.3148C1.51304 15.4545 1.66829 15.572 1.83909 15.6629C2.19449 15.8582 2.57241 16.0094 2.96445 16.1132C3.04536 16.134 3.12216 16.1684 3.19164 16.2148C3.32455 16.3312 3.30569 16.5064 3.48275 16.763C3.57163 16.8956 3.68457 17.0104 3.81572 17.1015C4.18731 17.3581 4.60489 17.3742 5.04731 17.3912C5.44696 17.4064 5.89996 17.4239 6.41734 17.5945C6.63165 17.6653 6.85424 17.8024 7.11224 17.9624C7.73171 18.3432 8.57976 18.8643 9.99899 18.8643C11.4182 18.8643 12.2722 18.3404 12.8963 17.9583C13.1525 17.801 13.3737 17.6653 13.582 17.5963C14.0994 17.4252 14.5524 17.4082 14.952 17.3931C15.3945 17.376 15.812 17.3599 16.1836 17.1033C16.339 16.995 16.4684 16.8537 16.5626 16.6894C16.69 16.4728 16.6868 16.3215 16.8063 16.2157C16.8715 16.1715 16.9437 16.1386 17.0197 16.1182C17.4171 16.0142 17.8002 15.8616 18.1603 15.6639C18.3417 15.5665 18.5051 15.4386 18.6432 15.2858L18.6478 15.2803C18.9899 14.9142 19.0759 14.4828 18.9356 14.1021ZM17.6742 14.7799C16.9048 15.2049 16.3934 15.1593 15.9955 15.4155C15.6575 15.633 15.8576 16.1021 15.612 16.2714C15.3103 16.4797 14.4186 16.2567 13.2665 16.637C12.3164 16.9511 11.7103 17.8543 10.0013 17.8543C8.29232 17.8543 7.70044 16.9529 6.73466 16.6347C5.58493 16.2544 4.69135 16.4774 4.3892 16.2691C4.14408 16.0998 4.34321 15.6307 4.00565 15.4132C3.60738 15.157 3.09598 15.2026 2.32704 14.7799C1.83725 14.5095 2.11503 14.3421 2.27829 14.263C5.06525 12.9137 5.50997 10.8304 5.52974 10.6758C5.55366 10.4887 5.58033 10.3415 5.3743 10.1511C5.17516 9.96715 4.29171 9.42033 4.04658 9.24925C3.64096 8.96596 3.46252 8.68312 3.59405 8.33544C3.68603 8.09492 3.91045 8.00432 4.14592 8.00432C4.22034 8.00455 4.29451 8.01287 4.36713 8.02915C4.81231 8.12573 5.24461 8.34878 5.49433 8.40903C5.5244 8.41674 5.55527 8.42091 5.58631 8.42144C5.71968 8.42144 5.76659 8.3543 5.75739 8.20161C5.72887 7.71459 5.65989 6.76537 5.73669 5.87823C5.84201 4.65767 6.23522 4.05291 6.70247 3.51805C6.9269 3.26097 7.98144 2.14665 9.99807 2.14665C12.0147 2.14665 13.072 3.25637 13.2964 3.51254C13.7641 4.04739 14.1578 4.65215 14.2622 5.87271C14.339 6.75985 14.2728 7.70953 14.2415 8.19609C14.2309 8.3566 14.2792 8.41592 14.4126 8.41592C14.4436 8.41543 14.4745 8.41126 14.5046 8.40351C14.7548 8.34326 15.1871 8.12021 15.6322 8.02363C15.7048 8.00735 15.779 7.99903 15.8534 7.9988C16.0903 7.9988 16.3133 8.09078 16.4053 8.32992C16.5368 8.6776 16.3593 8.96044 15.9532 9.24373C15.7081 9.41481 14.8247 9.96117 14.6255 10.1456C14.419 10.336 14.4462 10.4831 14.4701 10.6703C14.4899 10.8271 14.9341 12.9105 17.7215 14.2575C17.8862 14.3398 18.1639 14.5072 17.6742 14.7799Z" fill="black"/>
</svg>
