<svg width="20" height="20" viewBox="0 0 20 20" fill="none" xmlns="http://www.w3.org/2000/svg">
<path d="M17.9624 9.13668L16.6206 17.223C16.5331 17.7122 16.183 18 15.6871 18H4.31246C3.81667 18 3.46668 17.7122 3.37917 17.223L1.01671 2.80576C0.929198 2.31654 1.19168 2 1.65835 2H18.3416C18.8083 2 19.0708 2.31654 18.9833 2.80576L18.3416 6.60434C18.2541 7.15107 17.9332 7.38131 17.4081 7.38131H7.37495C7.2291 7.38131 7.14164 7.46761 7.17076 7.64029L7.95829 12.4173C7.98746 12.5324 8.07493 12.6187 8.19161 12.6187H11.8082C11.9249 12.6187 12.0124 12.5324 12.0416 12.4173L12.5957 8.96405C12.654 8.53239 12.9457 8.35971 13.354 8.35971H17.2915C17.8749 8.35971 18.0499 8.64751 17.9624 9.13668Z" fill="white"/>
</svg>
