<svg width="20" height="20" viewBox="0 0 20 20" fill="none" xmlns="http://www.w3.org/2000/svg">
<path d="M18.9994 9.99968C18.9994 5.02934 14.97 1 9.99968 1C5.02934 1 1 5.02934 1 9.99968C1 14.2202 3.90582 17.7617 7.82572 18.7344V12.75H5.96998V9.99968H7.82572V8.8146C7.82572 5.75147 9.21203 4.33168 12.2194 4.33168C12.7896 4.33168 13.7734 4.44364 14.1759 4.55523V7.04815C13.9635 7.02583 13.5945 7.01467 13.1362 7.01467C11.6607 7.01467 11.0904 7.57373 11.0904 9.02699V9.99968H14.0301L13.525 12.75H11.0904V18.9335C15.5467 18.3953 18.9997 14.601 18.9997 9.99968H18.9994Z" fill="white"/>
</svg>
