<svg width="20" height="20" viewBox="0 0 20 20" fill="none" xmlns="http://www.w3.org/2000/svg">
<path fill-rule="evenodd" clip-rule="evenodd" d="M9.97318 1C5.01125 1 1 5.125 1 10.2282C1 14.3074 3.57014 17.7604 7.13561 18.9826C7.58139 19.0744 7.74467 18.784 7.74467 18.5397C7.74467 18.3258 7.72998 17.5924 7.72998 16.8284C5.23386 17.3785 4.71406 15.7283 4.71406 15.7283C4.31292 14.6588 3.71855 14.3839 3.71855 14.3839C2.90157 13.8186 3.77806 13.8186 3.77806 13.8186C4.68431 13.8797 5.15984 14.7659 5.15984 14.7659C5.96194 16.1714 7.25445 15.7742 7.77443 15.5297C7.84863 14.9339 8.08649 14.5214 8.33904 14.2922C6.3482 14.0783 4.25359 13.2839 4.25359 9.73919C4.25359 8.73081 4.60992 7.90581 5.17453 7.26419C5.08545 7.03506 4.77339 6.08763 5.2638 4.81956C5.2638 4.81956 6.02145 4.57506 7.7298 5.76681C8.4612 5.56481 9.21549 5.46205 9.97318 5.46119C10.7308 5.46119 11.5032 5.56825 12.2164 5.76681C13.9249 4.57506 14.6826 4.81956 14.6826 4.81956C15.173 6.08763 14.8607 7.03506 14.7717 7.26419C15.3511 7.90581 15.6928 8.73081 15.6928 9.73919C15.6928 13.2839 13.5982 14.0629 11.5924 14.2922C11.9194 14.5825 12.2015 15.1324 12.2015 16.0034C12.2015 17.2409 12.1868 18.2341 12.1868 18.5395C12.1868 18.784 12.3503 19.0744 12.7959 18.9827C16.3613 17.7603 18.9315 14.3074 18.9315 10.2282C18.9462 5.125 14.9202 1 9.97318 1Z" fill="white"/>
</svg>
