<svg width="20" height="20" viewBox="0 0 20 20" fill="none" xmlns="http://www.w3.org/2000/svg">
<g clip-path="url(#clip0_893_1741)">
<path d="M18.6603 14.1132L17.5963 17.6153L14.0231 16.5766L13.736 16.4932L13.3266 16.3742L11.5736 15.8642L11.4205 15.8839L11.3612 16.0958L13.5256 16.7248L10.963 18.219H9.03877L6.47631 16.7248L8.63986 16.0968L8.58041 15.8839L8.4283 15.8642L6.26487 16.4932L5.97776 16.5766L2.40565 17.6153L1.34149 14.1132L1 13.9764L2.21234 17.9648L6.1011 16.8335L8.95942 18.5H11.0426L13.9008 16.8335L17.7896 17.9648L19.001 13.9764L18.6603 14.1132Z" fill="white"/>
<path d="M5.97776 14.1131V16.5764L6.26487 16.4931V14.2565L8.4283 15.8641L8.58041 15.8838L8.722 15.7292L6.16815 13.8319H1.33668L2.41896 9.87807L2.15973 9.74023L1 13.9763L1.34162 14.1131H5.97776ZM14.8987 11.8917L13.98 12.1138V12.4044L15.3331 12.0763L15.3417 9.87807H15.1513L15.0546 9.8135L15.047 11.6403L13.9379 10.6149H11.6367L11.5927 10.897H13.8242L14.8987 11.8917Z" fill="white"/>
<path d="M6.02162 12.4044V12.1138L5.10286 11.8917L6.17754 10.8973H8.40801L8.36403 10.615H6.1191L6.02048 10.6535L4.95442 11.6405L4.94682 9.81362L4.8501 9.87832H4.65882L4.66744 12.0765L6.02162 12.4044ZM17.5821 9.87807L18.6643 13.8319H13.833L11.279 15.7291L11.4207 15.8837L11.5737 15.8639L13.7363 14.2564V16.493L14.0234 16.5763V14.113H18.6604L19.001 13.9761L17.8422 9.74011L17.5821 9.87807Z" fill="white"/>
<path d="M4.6592 9.87806H4.85048L4.9472 9.81324L7.92214 7.81679L8.36517 10.6156L8.40915 10.8979L9.1076 15.312L9.35644 15.2135H9.3823L8.17275 7.56845L8.39559 5.32899H11.6059L11.8279 7.57106L10.6183 15.2133H10.6443L10.893 15.3117L11.5915 10.8976L11.6355 10.6155H11.6365L12.0795 7.81655L15.0534 9.81312L15.1502 9.87868H17.5817L17.8409 9.74098L18.9997 6.1602L17.7839 1.5L11.7009 5.047H8.30115L2.21715 1.5L1 6.16058L2.15885 9.74135L2.41807 9.87906H4.65831L4.6592 9.87806ZM18.7024 6.15213L17.5867 9.59681H15.2433L12.1937 7.55069L17.6173 1.99768L18.7024 6.15213ZM16.8595 2.36697L12.0866 7.25342L11.8884 5.26517C11.8885 5.26517 16.8595 2.36697 16.8595 2.36697ZM8.11253 5.26417L7.91542 7.25342L3.14251 2.36611L8.11253 5.2633V5.2643V5.26417ZM1.29852 6.15213L2.38359 1.99781L7.80717 7.55069L4.75782 9.59681H2.41427L1.29852 6.15213Z" fill="white"/>
<path d="M10.804 15.2135H9.19773L8.58053 15.8838L8.8878 16.9814H11.1126L11.4198 15.8838L10.8026 15.2135H10.8045H10.804ZM10.8932 16.7003H9.10963L8.90099 15.9561L9.32297 15.4976H10.6798L11.1018 15.9561C11.1018 15.956 10.8932 16.7003 10.8932 16.7003ZM8.41131 12.8158L8.38444 12.7472V12.7455L7.90883 11.5381H6.62272L6.02187 12.1137V12.4033L8.14321 12.917L8.41106 12.8158H8.41131ZM6.73946 11.8203H7.71172L8.01708 12.5946L6.35018 12.1915L6.7387 11.8204H6.73959L6.73946 11.8203ZM11.8569 12.9171L13.9784 12.4035V12.1138L13.3774 11.5394H12.0913L11.6158 12.7456V12.7475L11.5889 12.816L11.8569 12.9171ZM13.6493 12.1915L11.9824 12.5946L12.2878 11.8195H13.2599L13.6484 12.1917L13.6493 12.1915Z" fill="white"/>
</g>
<defs>
<clipPath id="clip0_893_1741">
<rect width="18" height="17" fill="white" transform="translate(1 1.5)"/>
</clipPath>
</defs>
</svg>
