<svg width="20" height="20" viewBox="0 0 20 20" fill="none" xmlns="http://www.w3.org/2000/svg">
<path fill-rule="evenodd" clip-rule="evenodd" d="M10.9031 1.125L10.5329 5.685C10.3577 5.665 10.1826 5.655 10.0025 5.655C9.77735 5.655 9.5572 5.67 9.34205 5.705L9.13191 3.495C9.12691 3.425 9.18194 3.365 9.25199 3.365H9.62725L9.44713 1.13C9.44212 1.06 9.49716 1 9.5622 1H10.788C10.8581 1 10.9131 1.06 10.9031 1.13V1.125ZM7.81101 1.35C7.791 1.285 7.72095 1.245 7.65591 1.27L6.50513 1.69C6.44008 1.715 6.41006 1.79 6.44008 1.85L7.37572 3.89L7.02048 4.02C6.95543 4.045 6.92541 4.12 6.95543 4.18L7.91108 6.185C8.25632 5.995 8.63157 5.85 9.02684 5.76L7.81602 1.35H7.81101ZM4.9891 2.62L7.63589 6.35C7.30067 6.57 6.99546 6.83 6.73528 7.13L5.14921 5.57C5.09917 5.52 5.10418 5.44 5.15421 5.395L5.44441 5.155L3.86834 3.56C3.8183 3.51 3.8233 3.43 3.87834 3.385L4.81398 2.6C4.86902 2.555 4.94407 2.565 4.98409 2.62H4.9891ZM2.76759 4.78C2.71255 4.74 2.6325 4.76 2.59747 4.82L1.98706 5.88C1.95203 5.94 1.97705 6.015 2.03709 6.045L4.06847 7.005L3.87834 7.33C3.84332 7.39 3.86834 7.47 3.93338 7.495L5.95475 8.42C6.09985 8.045 6.29498 7.695 6.53515 7.38L2.76759 4.78ZM1.27157 7.66C1.28158 7.59 1.35163 7.55 1.41667 7.565L5.84468 8.72C5.7296 9.095 5.66456 9.49 5.65455 9.9L3.43804 9.72C3.368 9.715 3.31796 9.65 3.33297 9.58L3.39802 9.21L1.1615 9C1.09145 8.995 1.04642 8.93 1.05643 8.86L1.26657 7.655L1.27157 7.66ZM1.10646 10.65C1.03641 10.655 0.991381 10.72 1.00139 10.79L1.21653 11.995C1.22654 12.065 1.29659 12.105 1.36163 12.09L3.53311 11.525L3.59815 11.895C3.60816 11.965 3.67821 12.005 3.74325 11.99L5.88471 11.4C5.75962 11.03 5.67957 10.635 5.65955 10.23L1.10146 10.65H1.10646ZM1.81694 13.82C1.78192 13.76 1.80694 13.685 1.86698 13.655L5.99978 11.695C6.15489 12.065 6.36503 12.41 6.6152 12.72L4.80397 14.01C4.74893 14.05 4.66888 14.035 4.63386 13.975L4.44373 13.645L2.59747 14.92C2.54243 14.96 2.46238 14.94 2.42736 14.88L1.81194 13.82H1.81694ZM6.82534 12.96L3.60816 16.215C3.55812 16.265 3.56313 16.345 3.61817 16.39L4.5588 17.175C4.61384 17.22 4.68889 17.21 4.72892 17.155L6.0298 15.325L6.32 15.57C6.37504 15.615 6.45509 15.605 6.49512 15.545L7.75598 13.715C7.41575 13.505 7.10053 13.25 6.83035 12.96H6.82534ZM6.18991 18.185C6.12487 18.16 6.09485 18.085 6.12487 18.025L8.03116 13.865C8.3814 14.045 8.76166 14.18 9.15693 14.255L8.59655 16.405C8.58154 16.47 8.50649 16.51 8.44144 16.485L8.0862 16.355L7.4908 18.52C7.47078 18.585 7.40073 18.625 7.33569 18.6L6.18491 18.18L6.18991 18.185ZM9.47214 14.31L9.10189 18.87C9.09689 18.94 9.15193 19 9.21697 19H10.4428C10.5128 19 10.5679 18.94 10.5579 18.87L10.3778 16.635H10.753C10.8231 16.635 10.8781 16.575 10.8731 16.505L10.663 14.295C10.4478 14.33 10.2277 14.345 10.0025 14.345C9.82238 14.345 9.64726 14.335 9.47214 14.31ZM13.8851 1.965C13.9152 1.9 13.8851 1.83 13.8201 1.805L12.6693 1.385C12.6043 1.36 12.5342 1.4 12.5142 1.465L11.9188 3.63L11.5636 3.5C11.4985 3.475 11.4285 3.515 11.4085 3.58L10.8481 5.73C11.2483 5.81 11.6236 5.945 11.9738 6.12L13.8851 1.965ZM16.3968 3.78L13.1797 7.035C12.9095 6.745 12.5993 6.49 12.254 6.28L13.5149 4.45C13.5549 4.395 13.635 4.38 13.69 4.425L13.9802 4.67L15.2811 2.84C15.3211 2.785 15.4012 2.775 15.4512 2.82L16.3918 3.605C16.4469 3.65 16.4469 3.73 16.4018 3.78H16.3968ZM18.138 6.34C18.2031 6.31 18.2231 6.235 18.1881 6.175L17.5726 5.115C17.5376 5.055 17.4576 5.04 17.4025 5.075L15.5563 6.35L15.3661 6.025C15.3311 5.965 15.2511 5.945 15.196 5.99L13.3848 7.28C13.635 7.59 13.8401 7.935 14.0002 8.305L18.133 6.345L18.138 6.34ZM18.7885 8L18.9986 9.205C19.0086 9.275 18.9636 9.335 18.8935 9.345L14.3354 9.77C14.3154 9.36 14.2354 8.97 14.1103 8.6L16.2517 8.01C16.3168 7.99 16.3868 8.035 16.3968 8.105L16.4619 8.475L18.6334 7.91C18.6984 7.895 18.7685 7.935 18.7785 8.005L18.7885 8ZM18.5833 12.425C18.6484 12.44 18.7184 12.4 18.7284 12.33L18.9386 11.125C18.9486 11.055 18.9035 10.995 18.8335 10.985L16.597 10.775L16.662 10.405C16.672 10.335 16.627 10.275 16.557 10.265L14.3404 10.085C14.3304 10.495 14.2654 10.89 14.1503 11.265L18.5783 12.42L18.5833 12.425ZM17.4025 15.175C17.3675 15.235 17.2875 15.25 17.2324 15.215L13.4649 12.615C13.705 12.3 13.9002 11.95 14.0452 11.575L16.0666 12.5C16.1317 12.53 16.1567 12.605 16.1217 12.665L15.9315 12.99L17.9629 13.95C18.023 13.98 18.048 14.055 18.0129 14.115L17.4025 15.175ZM12.3641 13.64L15.0109 17.37C15.0509 17.425 15.131 17.435 15.181 17.39L16.1167 16.605C16.1717 16.56 16.1717 16.48 16.1267 16.43L14.5506 14.835L14.8408 14.595C14.8958 14.55 14.8958 14.47 14.8458 14.42L13.2597 12.86C12.9945 13.16 12.6943 13.425 12.3591 13.64H12.3641ZM12.3391 18.72C12.274 18.745 12.204 18.705 12.184 18.64L10.9732 14.23C11.3684 14.14 11.7437 13.995 12.0889 13.805L13.0446 15.81C13.0746 15.875 13.0446 15.95 12.9795 15.97L12.6243 16.1L13.5599 18.14C13.5899 18.205 13.5599 18.275 13.4949 18.3L12.3441 18.72H12.3391Z" fill="white"/>
</svg>
