<svg width="20" height="20" viewBox="0 0 20 20" fill="none" xmlns="http://www.w3.org/2000/svg">
<path fill-rule="evenodd" clip-rule="evenodd" d="M8.48997 4.91567C9.0707 4.29203 9.87896 3.90584 10.7719 3.90584C11.9624 3.90584 12.9943 4.58816 13.5499 5.6048C14.043 5.37737 14.5772 5.25995 15.1174 5.26023C17.2605 5.26023 19 7.06837 19 9.29954C19 11.5307 17.2605 13.3388 15.1174 13.3388C14.8555 13.3388 14.6002 13.3117 14.3502 13.2604C13.864 14.1542 12.9347 14.7615 11.8765 14.7615C11.4456 14.7623 11.0203 14.6615 10.633 14.4667C10.1402 15.6608 8.99265 16.5 7.65657 16.5C6.26097 16.5 5.07702 15.5925 4.62064 14.3166C4.41751 14.3608 4.21047 14.383 4.00287 14.3829C2.34269 14.3829 1 12.9773 1 11.2511C1 10.0912 1.60454 9.08133 2.50143 8.53548C2.31116 8.08331 2.21322 7.59556 2.21371 7.10262C2.21371 5.11026 3.78129 3.5 5.71265 3.5C6.84368 3.5 7.85566 4.05609 8.49063 4.91921" fill="white"/>
</svg>
