<svg width="20" height="20" viewBox="0 0 20 20" fill="none" xmlns="http://www.w3.org/2000/svg">
<path d="M16.5545 7.1362C16.4548 7.2172 14.6936 8.2558 14.6936 10.5652C14.6936 13.2364 16.9346 14.1814 17.0017 14.2048C16.9914 14.2624 16.6457 15.499 15.8201 16.759C15.084 17.8678 14.3152 18.9748 13.1457 18.9748C11.9762 18.9748 11.6752 18.2638 10.3251 18.2638C9.00934 18.2638 8.54152 18.9982 7.47174 18.9982C6.40197 18.9982 5.65553 17.9722 4.7973 16.7122C3.80319 15.2326 3 12.934 3 10.7524C3 7.2532 5.17396 5.3974 7.31351 5.3974C8.45037 5.3974 9.39803 6.1786 10.1118 6.1786C10.7912 6.1786 11.8506 5.3506 13.144 5.3506C13.6342 5.3506 15.3953 5.3974 16.5545 7.1362ZM12.53 3.8692C13.0649 3.205 13.4432 2.2834 13.4432 1.3618C13.4432 1.234 13.4329 1.1044 13.4106 1C12.5403 1.0342 11.5049 1.6066 10.8806 2.3644C10.3904 2.9476 9.93292 3.8692 9.93292 4.8034C9.93292 4.9438 9.95528 5.0842 9.9656 5.1292C10.0206 5.14 10.1101 5.1526 10.1995 5.1526C10.9803 5.1526 11.9624 4.6054 12.53 3.8692Z" fill="black"/>
</svg>
