<svg width="20" height="20" viewBox="0 0 20 20" fill="none" xmlns="http://www.w3.org/2000/svg">
<path d="M6.42669 8.56375L9.92231 5.06827L13.4198 8.5656L15.4538 6.5316L9.92231 1L4.39269 6.52976L6.42669 8.56375Z" fill="#F3BA2F"/>
<path d="M4.99029 9.99966L2.95633 7.9657L0.92227 9.99976L2.95623 12.0337L4.99029 9.99966Z" fill="#F3BA2F"/>
<path d="M6.42669 11.4363L9.92231 14.9318L13.4196 11.4346L15.4548 13.4674L15.4538 13.4686L9.92231 19L4.39255 13.4704L4.38971 13.4676L6.42669 11.4363Z" fill="#F3BA2F"/>
<path d="M16.8885 12.0347L18.9225 10.0006L16.8886 7.96665L14.8545 10.0007L16.8885 12.0347Z" fill="#F3BA2F"/>
<path d="M11.9854 9.99893H11.9863L9.92231 7.93494L8.39699 9.46025H8.39685L8.22169 9.63555L7.86016 9.99708L7.85732 9.99992L7.86016 10.0029L9.92231 12.0651L11.9863 10.0011L11.9873 9.99992L11.9854 9.99893Z" fill="#F3BA2F"/>
</svg>
