<svg width="20" height="20" viewBox="0 0 20 20" fill="none" xmlns="http://www.w3.org/2000/svg">
<path d="M10.0169 14.5C7.52606 14.5 5.50847 12.4861 5.50847 10C5.50847 7.51388 7.52553 5.5 10.0169 5.5C11.0807 5.50019 12.1101 5.87677 12.9228 6.56307C13.7356 7.24938 14.2793 8.20113 14.4576 9.24982H19C18.6167 4.63018 14.7435 1 10.0169 1C5.03888 1 1 5.03147 1 10C1 14.9685 5.03888 19 10.0169 19C14.743 19 18.6167 15.3698 19 10.7502H14.4576C14.2793 11.7989 13.7356 12.7506 12.9228 13.4369C12.1101 14.1232 11.0807 14.4998 10.0169 14.5Z" fill="#0052FF"/>
</svg>
