<svg width="20" height="20" viewBox="0 0 20 20" fill="none" xmlns="http://www.w3.org/2000/svg">
<path d="M12.5339 3C12.358 3.29755 12.2001 3.60537 12.0565 3.92002C10.6924 3.72508 9.30315 3.72508 7.93547 3.92002C7.79547 3.60537 7.63392 3.29755 7.45804 3C6.1765 3.20864 4.92727 3.57459 3.74267 4.09102C1.39498 7.40516 0.759601 10.6338 1.0755 13.8179C2.45036 14.7858 3.99036 15.5246 5.63086 15.9966C6.0006 15.5246 6.32727 15.0218 6.60727 14.4986C6.07599 14.3104 5.56265 14.0745 5.07087 13.8008C5.20009 13.7119 5.32573 13.6196 5.44778 13.5307C8.33034 14.8235 11.6688 14.8235 14.5549 13.5307C14.677 13.6264 14.8026 13.7188 14.9318 13.8008C14.4401 14.0779 13.9267 14.3104 13.3919 14.502C13.6718 15.0253 13.9985 15.528 14.3683 16C16.0087 15.528 17.5487 14.7927 18.9237 13.8248C19.2969 10.131 18.2847 6.92975 16.2492 4.09445C15.0683 3.57801 13.819 3.21205 12.5375 3.00684L12.5339 3ZM7.00932 11.8582C6.12266 11.8582 5.38677 11.0921 5.38677 10.1447C5.38677 9.19733 6.09394 8.42778 7.00573 8.42778C7.91753 8.42778 8.64264 9.20074 8.62828 10.1447C8.61393 11.0887 7.91394 11.8582 7.00932 11.8582ZM12.9898 11.8582C12.0995 11.8582 11.3708 11.0921 11.3708 10.1447C11.3708 9.19733 12.078 8.42778 12.9898 8.42778C13.9016 8.42778 14.6231 9.20074 14.6088 10.1447C14.5944 11.0887 13.8944 11.8582 12.9898 11.8582Z" fill="#5865F2"/>
</svg>
