<svg width="20" height="20" viewBox="0 0 20 20" fill="none" xmlns="http://www.w3.org/2000/svg">
<path d="M18.9996 10C18.9996 5.0297 14.9703 1.00037 9.99996 1.00037C5.02962 1.00037 1.00028 5.0297 1.00028 10C1.00028 14.2205 3.9061 17.7621 7.826 18.7348V12.7503H5.97027V10H7.826V8.81497C7.826 5.75184 9.21231 4.33205 12.2196 4.33205C12.7899 4.33205 13.7737 4.444 14.1762 4.5556V7.04851C13.9638 7.02619 13.5948 7.01503 13.1365 7.01503C11.6609 7.01503 11.0907 7.57409 11.0907 9.02736V10H14.0304L13.5253 12.7503H11.0907V18.9338C15.547 18.3957 19 14.6014 19 10H18.9996Z" fill="#0866FF"/>
<path d="M13.525 12.7503L14.03 10H11.0904V9.02734C11.0904 7.57408 11.6606 7.01502 13.1362 7.01502C13.5944 7.01502 13.9634 7.02618 14.1758 7.0485V4.55558C13.7733 4.44363 12.7895 4.33203 12.2193 4.33203C9.21195 4.33203 7.82564 5.75182 7.82564 8.81495V10H5.9699V12.7503H7.82564V18.7348C8.52185 18.9076 9.2501 18.9997 9.9996 18.9997C10.3686 18.9997 10.7325 18.977 11.09 18.9338V12.7503H13.5246H13.525Z" fill="white"/>
</svg>
