<svg width="20" height="20" viewBox="0 0 20 20" fill="none" xmlns="http://www.w3.org/2000/svg">
<path d="M4 16C4 14.3432 5.34316 13 7 13H10V16C10 17.6568 8.65684 19 7 19C5.34316 19 4 17.6568 4 16Z" fill="#24CB71"/>
<path d="M10 1V7H13C14.6568 7 16 5.65684 16 4C16 2.34316 14.6568 1 13 1H10Z" fill="#FF7237"/>
<path d="M12.975 13C14.6319 13 15.975 11.6569 15.975 10C15.975 8.34315 14.6319 7 12.975 7C11.3182 7 9.97501 8.34315 9.97501 10C9.97501 11.6569 11.3182 13 12.975 13Z" fill="#00B6FF"/>
<path d="M4 4C4 5.65684 5.34316 7 7 7H10V1H7C5.34316 1 4 2.34316 4 4Z" fill="#FF3737"/>
<path d="M4 10C4 11.6568 5.34316 13 7 13H10V7H7C5.34316 7 4 8.34316 4 10Z" fill="#874FFF"/>
</svg>
