<svg width="20" height="20" viewBox="0 0 20 20" fill="none" xmlns="http://www.w3.org/2000/svg">
<path d="M18.6989 8.19385L18.6743 8.12933L16.2241 1.73678C16.1752 1.61154 16.0871 1.50604 15.9725 1.43317C15.8583 1.35993 15.7243 1.32539 15.5884 1.3326C15.4533 1.33981 15.3235 1.38915 15.2176 1.4734C15.1125 1.55841 15.0366 1.67341 15.0009 1.8032L13.3466 6.86631H6.65352L4.99921 1.8032C4.96354 1.67341 4.88764 1.55841 4.78251 1.4734C4.67662 1.38915 4.54683 1.33981 4.41172 1.3326C4.27586 1.32539 4.14188 1.35993 4.02766 1.43317C3.91304 1.50604 3.82499 1.61154 3.77603 1.73678L1.32589 8.12971L1.30122 8.19385C0.575203 10.0876 1.19381 12.2285 2.81055 13.4513C2.81358 13.4532 2.81624 13.4554 2.81928 13.4577L2.84091 13.474L6.57306 16.268L8.41902 17.6654L9.54239 18.5148C9.81298 18.7197 10.1872 18.7197 10.4578 18.5148L11.5811 17.6654L13.4267 16.268L17.1809 13.4577C17.1843 13.4551 17.1873 13.4528 17.1907 13.4501C18.8063 12.2273 19.4246 10.0873 18.6989 8.19385Z" fill="#E24329"/>
<path d="M18.6989 8.19379L18.6743 8.12927C17.4587 8.37899 16.3391 8.89324 15.3805 9.61052C15.3649 9.62191 12.4673 11.8132 10.0001 13.6785C11.832 15.0638 13.4267 16.268 13.4267 16.268L17.1809 13.4577C17.1843 13.455 17.1873 13.4527 17.1907 13.4501C18.8063 12.2273 19.4246 10.0872 18.6989 8.19379Z" fill="#FC6D26"/>
<path d="M6.57305 16.2679L8.41902 17.6653L9.54238 18.5146C9.81297 18.7196 10.1872 18.7196 10.4578 18.5146L11.5811 17.6653L13.4267 16.2679C13.4267 16.2679 11.832 15.0637 10.0001 13.6785C8.16777 15.0637 6.57305 16.2679 6.57305 16.2679Z" fill="#FCA326"/>
<path d="M4.6193 9.61051C3.66102 8.8936 2.54184 8.37898 1.32588 8.12964L1.3012 8.19378C0.575188 10.0876 1.1938 12.2284 2.81053 13.4512C2.81356 13.4531 2.81622 13.4554 2.81926 13.4576L2.8409 13.474L6.57304 16.268C6.57304 16.268 8.16776 15.0638 10.0001 13.6785C7.53284 11.8132 4.63486 9.62189 4.6193 9.61051Z" fill="#FC6D26"/>
</svg>
