<svg width="20" height="20" viewBox="0 0 20 20" fill="none" xmlns="http://www.w3.org/2000/svg">
<path d="M1 5.09251V6.72887L2.8767 8.54523L5.09091 9.79705L5.5 7.04285L5.09091 4.47887L3.94545 3.61978C2.73148 2.70955 1 3.5758 1 5.09251Z" fill="#C5221F"/>
<path d="M14.9091 4.47887L14.5 7.0766L14.9091 9.79705L16.9187 8.80194L19 6.72887V5.09251C19 3.5758 17.2685 2.70955 16.0545 3.61978L14.9091 4.47887Z" fill="#FBBC04"/>
<path d="M2.22728 16.7516H5.09092V9.79706L1.00001 6.72888V15.5243C1.00001 16.2024 1.54921 16.7516 2.22728 16.7516Z" fill="#4285F4"/>
<path d="M14.9091 16.7516H17.7727C18.4508 16.7516 19 16.2024 19 15.5243V6.72888L14.9091 9.79706V16.7516Z" fill="#34A853"/>
<path d="M10 8.1607L5.09092 4.47888V9.79706L10 13.4789L14.9091 9.79706V4.47888L10 8.1607Z" fill="#EA4335"/>
</svg>
