<svg width="20" height="20" viewBox="0 0 20 20" fill="none" xmlns="http://www.w3.org/2000/svg">
<path fill-rule="evenodd" clip-rule="evenodd" d="M3 19H17C18.1046 19 19 18.1046 19 17V3C19 1.89543 18.1046 1 17 1H3C1.89543 1 1 1.89543 1 3V17C1 18.1046 1.89543 19 3 19Z" fill="#007EBB"/>
<path fill-rule="evenodd" clip-rule="evenodd" d="M16.5 16.5H13.8289V11.9505C13.8289 10.7032 13.3549 10.0061 12.3677 10.0061C11.2937 10.0061 10.7325 10.7315 10.7325 11.9505V16.5H8.15833V7.83333H10.7325V9.00073C10.7325 9.00073 11.5065 7.56855 13.3456 7.56855C15.1839 7.56855 16.5 8.69112 16.5 11.0128V16.5ZM5.08734 6.6985C4.21051 6.6985 3.5 5.98241 3.5 5.09925C3.5 4.21609 4.21051 3.5 5.08734 3.5C5.96416 3.5 6.67425 4.21609 6.67425 5.09925C6.67425 5.98241 5.96416 6.6985 5.08734 6.6985ZM3.75814 16.5H6.44235V7.83333H3.75814V16.5Z" fill="white"/>
</svg>
