<svg width="20" height="20" viewBox="0 0 20 20" fill="none" xmlns="http://www.w3.org/2000/svg">
<path d="M17.8211 18.0824L13.9439 16.9279L11.02 18.6758L8.97999 18.6749L6.05435 16.9279L2.17887 18.0824L1 14.1027L2.17887 9.68593L1 5.95162L2.17887 1.32343L8.23464 4.94144H11.7653L17.8211 1.32343L19 5.95162L17.8211 9.68593L19 14.1027L17.8211 18.0824Z" fill="#FF5C16"/>
<path d="M2.17975 1.32343L8.23554 4.94397L7.99469 7.42871L2.17975 1.32343Z" fill="#FF5C16"/>
<path d="M6.05518 14.1045L8.71968 16.1342L6.05518 16.9279V14.1045Z" fill="#FF5C16"/>
<path d="M8.50672 10.7487L7.99461 7.43036L4.71659 9.68671L4.71489 9.68588V9.68756L4.72503 12.0102L6.05433 10.7487H6.05518H8.50672Z" fill="#FF5C16"/>
<path d="M17.8211 1.32343L11.7653 4.94397L12.0053 7.42871L17.8211 1.32343Z" fill="#FF5C16"/>
<path d="M13.9456 14.1045L11.2811 16.1342L13.9456 16.9279V14.1045Z" fill="#FF5C16"/>
<path d="M15.2852 9.68756V9.68588L15.2843 9.68671L12.0063 7.43036L11.4942 10.7487H13.9457L15.2759 12.0102L15.2852 9.68756Z" fill="#FF5C16"/>
<path d="M6.05435 16.9279L2.17887 18.0824L1 14.1044H6.05435V16.9279Z" fill="#E34807"/>
<path d="M8.50592 10.7479L9.24621 15.545L8.22028 12.8778L4.72339 12.0102L6.05354 10.7479H8.50509H8.50592Z" fill="#E34807"/>
<path d="M13.9456 16.9279L17.8211 18.0824L18.9999 14.1044H13.9456V16.9279Z" fill="#E34807"/>
<path d="M11.4941 10.7479L10.7538 15.545L11.7797 12.8778L15.2766 12.0102L13.9456 10.7479H11.4941Z" fill="#E34807"/>
<path d="M1 14.1027L2.17887 9.68591H4.71408L4.72337 12.0093L8.22028 12.8769L9.24619 15.5442L8.71887 16.1316L6.05437 14.1019H1V14.1027Z" fill="#FF8D5D"/>
<path d="M19 14.1027L17.8211 9.68591H15.2859L15.2766 12.0093L11.7797 12.8769L10.7538 15.5442L11.2811 16.1316L13.9456 14.1019H19V14.1027Z" fill="#FF8D5D"/>
<path d="M11.7654 4.94141H10H8.23468L7.99468 7.42614L9.24623 15.5416H10.7538L12.0062 7.42614L11.7654 4.94141Z" fill="#FF8D5D"/>
<path d="M2.17887 1.32343L1 5.95162L2.17887 9.68593H4.71408L7.99381 7.42871L2.17887 1.32343Z" fill="#661800"/>
<path d="M7.77323 11.7114H6.62477L5.99943 12.3243L8.22111 12.8752L7.77323 11.7105V11.7114Z" fill="#661800"/>
<path d="M17.8211 1.32343L19 5.95162L17.8211 9.68593H15.2859L12.0062 7.42871L17.8211 1.32343Z" fill="#661800"/>
<path d="M12.2284 11.7114H13.3786L14.0039 12.3251L11.7797 12.8769L12.2284 11.7105V11.7114Z" fill="#661800"/>
<path d="M11.0191 17.0926L11.2811 16.1333L10.7538 15.5459H9.24531L8.71799 16.1333L8.97997 17.0926" fill="#661800"/>
<path d="M11.0191 17.0925V18.6766H8.97993V17.0925H11.0191Z" fill="#C0C4CD"/>
<path d="M6.05518 16.9262L8.98165 18.6757V17.0917L8.71968 16.1324L6.05518 16.9262Z" fill="#E7EBF6"/>
<path d="M13.9456 16.9262L11.0192 18.6757V17.0917L11.2811 16.1324L13.9456 16.9262Z" fill="#E7EBF6"/>
</svg>
