<svg width="20" height="20" viewBox="0 0 20 20" fill="none" xmlns="http://www.w3.org/2000/svg">
<g clip-path="url(#clip0_893_1954)">
<path d="M6.58147 17.203H16.8291C18.0281 17.203 19 16.231 19 15.0321V7.68933C19 7.05147 18.6806 6.46582 18.1265 6.14976L12.765 3.10092C12.0524 2.69437 11.1777 2.69587 10.4664 3.10485L4.39085 6.59829V15.0124C4.39085 16.2222 5.37162 17.203 6.58147 17.203Z" fill="#158FDA"/>
<path d="M8.61222 15.8157C8.66946 15.1563 9.08644 14.5824 9.69598 14.3243C9.69598 14.3243 15.2473 11.2065 17.9997 9.59323C18.8516 9.09391 19 8.0816 19 8.0816V15.0087C19 16.2205 18.0176 17.203 16.8057 17.203H10.1514C9.35883 17.203 8.69434 16.6041 8.61222 15.8157Z" fill="url(#paint0_linear_893_1954)"/>
<path d="M17.8279 5.95862L8.28317 11.2336L10.1863 12.387C10.8926 12.815 11.9164 13.0466 12.6365 12.6423L17.7174 9.78885C18.3979 9.40668 19 8.77787 19 7.68931C19 6.58359 18.2374 6.21866 17.8279 5.95862Z" fill="#01459B"/>
<path d="M11.672 2.81281C11.2537 2.81181 10.8352 2.91757 10.4587 3.13014L2.39971 7.68029L5.45638 9.53276L14.8312 4.24778L12.8837 3.13593C12.5083 2.92157 12.0903 2.81381 11.672 2.81281Z" fill="#26AEE9"/>
<path d="M14.8312 4.2478L5.45638 9.53278L8.52219 11.3908L18.0797 6.11579C18.0038 6.05898 17.9113 6.00631 17.8279 5.95865L14.8312 4.2478Z" fill="#0078D3"/>
<path d="M1.87559 5.41827L9.38948 5.41746C9.48705 5.41745 9.58366 5.43671 9.67378 5.47412C9.76389 5.51154 9.84573 5.56639 9.91459 5.63551C9.98346 5.70463 10.038 5.78667 10.0751 5.87692C10.1122 5.96717 10.1311 6.06386 10.1307 6.16143L10.1028 13.4769C10.1021 13.6789 10.0213 13.8724 9.87812 14.015C9.73499 14.1576 9.54118 14.2377 9.33913 14.2377L1.90883 14.2386C1.80634 14.2386 1.70485 14.2183 1.6102 14.179C1.51554 14.1397 1.42958 14.0821 1.35724 14.0095C1.2849 13.9369 1.22761 13.8507 1.18866 13.7559C1.14971 13.6611 1.12986 13.5596 1.13025 13.4571L1.15815 6.13306C1.15887 5.94325 1.23478 5.76146 1.36924 5.62749C1.50371 5.49352 1.68578 5.41829 1.87559 5.41827Z" fill="url(#paint1_linear_893_1954)"/>
<g filter="url(#filter0_d_893_1954)">
<path d="M1.87559 5.41827L9.38948 5.41746C9.48705 5.41745 9.58366 5.43671 9.67378 5.47412C9.76389 5.51154 9.84573 5.56639 9.91459 5.63551C9.98346 5.70463 10.038 5.78667 10.0751 5.87692C10.1122 5.96717 10.1311 6.06386 10.1307 6.16143L10.1028 13.4769C10.1021 13.6789 10.0213 13.8724 9.87812 14.015C9.73499 14.1576 9.54118 14.2377 9.33913 14.2377L1.90883 14.2386C1.80634 14.2386 1.70485 14.2183 1.6102 14.179C1.51554 14.1397 1.42958 14.0821 1.35724 14.0095C1.2849 13.9369 1.22761 13.8507 1.18866 13.7559C1.14971 13.6611 1.12986 13.5596 1.13025 13.4571L1.15815 6.13306C1.15887 5.94325 1.23478 5.76146 1.36924 5.62749C1.50371 5.49352 1.68578 5.41829 1.87559 5.41827Z" fill="url(#paint2_linear_893_1954)"/>
</g>
<path d="M3.46044 8.57531C3.63961 8.1874 3.93367 7.86044 4.30486 7.63644C4.71609 7.39822 5.18671 7.27516 5.66491 7.2808C6.10776 7.26425 6.54668 7.36658 6.93371 7.57662C7.2977 7.7803 7.59309 8.08259 7.78405 8.44681C7.99208 8.84819 8.0997 9.29189 8.09816 9.7417C8.11554 10.2115 8.01978 10.6788 7.81854 11.1062C7.6353 11.4896 7.34082 11.8124 6.97149 12.0347C6.88745 12.0835 6.80082 12.1274 6.71209 12.1662C6.38414 12.3094 6.02743 12.383 5.66589 12.3807C5.21359 12.3986 4.76502 12.2952 4.36912 12.0817C4.00201 11.8778 3.70296 11.5752 3.50767 11.2101C3.29854 10.8146 3.1898 10.3759 3.19054 9.93084C3.17454 9.46504 3.26681 9.00166 3.46044 8.57531ZM4.41169 10.7318C4.51449 10.9736 4.68555 11.1819 4.90502 11.3326C5.12846 11.4795 5.39435 11.5529 5.66378 11.5419C5.951 11.5483 6.23264 11.4635 6.46613 11.3001C6.67786 11.1429 6.83766 10.9286 6.92577 10.6839C7.02427 10.4106 7.07039 10.122 7.06181 9.8325C7.06025 9.54014 7.0078 9.25021 6.90669 8.97503C6.81729 8.72655 6.65575 8.50879 6.44167 8.34818C6.20881 8.18485 5.92525 8.10469 5.6387 8.1212C5.36321 8.11872 5.09392 8.20136 4.86951 8.35727C4.65138 8.51575 4.48401 8.73143 4.38697 8.97907C4.17198 9.54661 4.18094 10.1715 4.41211 10.7326L4.41169 10.7318Z" fill="white"/>
</g>
<defs>
<filter id="filter0_d_893_1954" x="-15.1598" y="-10.8725" width="53.5805" height="53.401" filterUnits="userSpaceOnUse" color-interpolation-filters="sRGB">
<feFlood flood-opacity="0" result="BackgroundImageFix"/>
<feColorMatrix in="SourceAlpha" type="matrix" values="0 0 0 0 0 0 0 0 0 0 0 0 0 0 0 0 0 0 127 0" result="hardAlpha"/>
<feOffset dx="6" dy="6"/>
<feGaussianBlur stdDeviation="11.145"/>
<feComposite in2="hardAlpha" operator="out"/>
<feColorMatrix type="matrix" values="0 0 0 0 0 0 0 0 0 0 0 0 0 0 0 0 0 0 0.38 0"/>
<feBlend mode="normal" in2="BackgroundImageFix" result="effect1_dropShadow_893_1954"/>
<feBlend mode="normal" in="SourceGraphic" in2="effect1_dropShadow_893_1954" result="shape"/>
</filter>
<linearGradient id="paint0_linear_893_1954" x1="12.0177" y1="15.5834" x2="19" y2="12.6423" gradientUnits="userSpaceOnUse">
<stop stop-color="#4DE2FB"/>
<stop offset="1" stop-color="#28AEE8"/>
</linearGradient>
<linearGradient id="paint1_linear_893_1954" x1="5.63253" y1="5.41787" x2="5.62398" y2="14.2382" gradientUnits="userSpaceOnUse">
<stop stop-color="#1582D8"/>
<stop offset="1" stop-color="#0A64CC"/>
</linearGradient>
<linearGradient id="paint2_linear_893_1954" x1="5.63253" y1="5.41787" x2="5.62398" y2="14.2382" gradientUnits="userSpaceOnUse">
<stop stop-color="#1582D8"/>
<stop offset="1" stop-color="#0A64CC"/>
</linearGradient>
<clipPath id="clip0_893_1954">
<rect width="20" height="20" fill="white"/>
</clipPath>
</defs>
</svg>
