<svg width="20" height="20" viewBox="0 0 20 20" fill="none" xmlns="http://www.w3.org/2000/svg">
<path d="M3.12993 17.5C5.42691 17.5 7.15313 15.5009 8.18326 13.9212C8.05799 14.2707 7.98839 14.6202 7.98839 14.9558C7.98839 15.8784 8.51738 16.5354 9.56149 16.5354C10.9953 16.5354 12.5267 15.2773 13.3202 13.9212C13.2645 14.117 13.2367 14.2987 13.2367 14.4665C13.2367 15.1095 13.5986 15.5149 14.3364 15.5149C16.6612 15.5149 19 11.391 19 7.78425C19 4.97437 17.58 2.5 14.0163 2.5C7.75171 2.5 1 10.1608 1 15.1095C1 17.0527 2.04408 17.5 3.12993 17.5ZM11.8584 7.4767C11.8584 6.77773 12.2482 6.28844 12.819 6.28844C13.3759 6.28844 13.7656 6.77773 13.7656 7.4767C13.7656 8.17568 13.3759 8.67894 12.819 8.67894C12.2482 8.67894 11.8584 8.17568 11.8584 7.4767ZM14.8376 7.4767C14.8376 6.77773 15.2274 6.28844 15.7981 6.28844C16.355 6.28844 16.7447 6.77773 16.7447 7.4767C16.7447 8.17568 16.355 8.67894 15.7981 8.67894C15.2274 8.67894 14.8376 8.17568 14.8376 7.4767Z" fill="#AB9FF2"/>
</svg>
